<svg width="114.899902" height="32.899902" viewBox="0 0 114.9 32.8999" fill="none" xmlns="http://www.w3.org/2000/svg" xmlns:xlink="http://www.w3.org/1999/xlink">
	<desc>
			Created with Pixso.
	</desc>
	<defs/>
	<path id="HTML Academy" d="M11.6 4.5C10 4.5 8.8 5.19 8 6.19L7.89 6.19L7.89 0L5.89 0L5.89 15.5L7.89 15.5L7.89 10.2C7.89 8.1 9.19 6.6 11.2 6.6C13 6.6 14.1 8 14.1 9.8L14.1 15.5L16.1 15.5L16.1 9.39C16.1 9.32 16.1 9.24 16.1 9.17C16.1 6.3 14.23 4.5 11.6 4.5ZM47.8 12.7C47.8 14.39 48.8 15.39 50.6 15.39L52.6 15.39L52.6 13.39L50.89 13.39C50.2 13.39 49.8 13 49.8 12.3L49.8 0L47.8 0L47.8 12.7ZM26.6 4.8L21.8 4.8L21.8 1.1L19.79 1.1L19.79 4.89L17.89 4.89L17.89 6.89L19.79 6.89L19.79 12.89C19.79 14.6 20.8 15.6 22.5 15.6L26.6 15.6L26.6 13.6L22.89 13.6C22.2 13.6 21.8 13.2 21.8 12.5L21.8 6.8L26.6 6.8L26.6 4.8ZM41.1 4.6C39.5 4.6 38.2 5.39 37.6 6.69L37.5 6.69C36.89 5.5 35.7 4.6 34.1 4.6C32.7 4.6 31.6 5.39 31 6.39L30.89 6.39L30.89 4.8L29 4.8L29 15.39L31 15.39L31 10C31 8 32 6.5 33.6 6.5C35.1 6.5 36 7.5 36 9.1L36 15.39L38 15.39L38 9.8C38 7.39 39.39 6.5 40.6 6.5C42.1 6.5 43 7.5 43 9.1L43 15.39L45 15.39L45 8.89C45 8.82 45 8.74 45 8.66C45 6.28 43.52 4.6 41.1 4.6ZM0 12.89L0 15.5L2.5 15.5L2.5 12.89L0 12.89ZM68.69 19.79C67.8 18.7 66.5 17.89 64.8 17.89C61.7 17.89 59.39 20.2 59.39 23.5C59.39 26.8 61.6 29.1 64.8 29.1C66.5 29.1 67.8 28.3 68.6 27.3L68.69 27.3L68.69 28.8L70.69 28.8L70.69 13.39L68.69 13.39L68.69 19.79ZM28.89 19.7C28 18.6 26.7 17.89 25 17.89C21.89 17.89 19.6 20.2 19.6 23.5C19.6 26.8 21.89 29.1 25 29.1C26.8 29.1 28 28.3 28.8 27.2L28.89 27.2L28.89 28.8L30.89 28.8L30.89 18.2L28.89 18.2L28.89 19.7ZM44.2 22C43.7 19.6 41.6 17.89 38.8 17.89C35.39 17.89 33.2 20.39 33.2 23.5C33.2 26.6 35.39 29.1 38.8 29.1C41.6 29.1 43.7 27.3 44.2 24.89L42.1 24.89C41.7 26.2 40.39 27.2 38.8 27.2C36.6 27.2 35.2 25.6 35.2 23.6C35.2 21.6 36.6 20 38.8 20C40.39 20 41.6 21 42.1 22.2L44.2 22.2L44.2 22ZM55.1 19.7C54.2 18.6 52.89 17.89 51.2 17.89C48.1 17.89 45.8 20.2 45.8 23.5C45.8 26.8 48.1 29.1 51.2 29.1C53 29.1 54.2 28.3 55 27.2L55.1 27.2L55.1 28.8L57.1 28.8L57.1 18.2L55.1 18.2L55.1 19.7ZM78.3 17.89C75 17.89 72.8 20.39 72.8 23.5C72.8 26.5 74.89 29.1 78.3 29.1C80.8 29.1 82.8 27.8 83.5 25.5L81.39 25.5C80.89 26.5 79.8 27.1 78.39 27.1C76.5 27.1 75.1 25.8 75 24.2L83.8 24.2C83.8 24.04 83.81 23.89 83.81 23.75C83.81 20.37 81.65 17.89 78.3 17.89ZM98.2 17.89C96.6 17.89 95.3 18.7 94.6 19.89L94.5 19.89C93.89 18.7 92.7 17.89 91.1 17.89C89.7 17.89 88.6 18.6 88 19.7L88 18.2L86.1 18.2L86.1 28.8L88.1 28.8L88.1 23.39C88.1 21.39 89.1 20 90.7 19.89C92.2 19.89 93.1 20.89 93.1 22.5L93.1 28.8L95.1 28.8L95.1 23.2C95.1 20.8 96.5 19.89 97.7 19.89C99.2 19.89 100.1 20.89 100.1 22.5L100.1 28.8L102.1 28.8L102.1 22.3C102.1 22.21 102.1 22.13 102.1 22.05C102.1 19.58 100.62 17.89 98.2 17.89ZM109.4 27L105.8 18.1L103.6 18.1L108.4 29.7C108.1 30.6 107.7 30.89 106.7 30.89L104.2 30.89L104.2 32.89L106.7 32.89C108.5 32.89 109.5 32.1 110.2 30.3L114.9 18.1L112.8 18.1L109.4 27ZM78.3 19.79C80 19.79 81.3 20.8 81.6 22.39L75.1 22.39C75.39 20.89 76.6 19.79 78.3 19.79ZM25.3 27.1C23.1 27.1 21.7 25.5 21.7 23.5C21.7 21.5 23.1 19.89 25.3 19.89C27.5 19.89 28.89 21.5 28.89 23.5C28.89 25.39 27.5 27.1 25.3 27.1ZM51.5 27.1C49.3 27.1 47.89 25.5 47.89 23.5C47.89 21.5 49.3 19.89 51.5 19.89C53.7 19.89 55.1 21.5 55.1 23.5C55.1 25.39 53.6 27.1 51.5 27.1ZM65.1 27.1C62.89 27.1 61.5 25.5 61.5 23.5C61.5 21.5 62.89 19.89 65.1 19.89C67.3 19.89 68.69 21.5 68.69 23.5C68.6 25.5 67.19 27.1 65.1 27.1Z" fill="#000000" fill-opacity="1.000000" fill-rule="evenodd"/>
</svg>
