<svg width="16.000000" height="15.000000" viewBox="0 0 16 15" fill="none" xmlns="http://www.w3.org/2000/svg" xmlns:xlink="http://www.w3.org/1999/xlink">
	<desc>
			Created with Pixso.
	</desc>
	<defs/>
	<path d="M15 2L13 2L13 0L12 0L12 2L4 2L4 0L3 0L3 2L1 2C0.39 2 0 2.4 0 3L0 14C0 14.5 0.39 15 1 15L15 15C15.5 15 16 14.5 16 14L16 3C16 2.4 15.5 2 15 2ZM1 6L1 3L3 3L3 5L4 5L4 3L12 3L12 5L13 5L13 3L15 3L15 6L1 6ZM15 14L1 14L1 7L15 7L15 14ZM3.5 10C3.79 10 4 9.8 4 9.5C4 9.19 3.79 9 3.5 9C3.2 9 3 9.19 3 9.5C3 9.8 3.2 10 3.5 10ZM5.75 10C6.04 10 6.25 9.8 6.25 9.5C6.25 9.19 6.04 9 5.75 9C5.45 9 5.25 9.19 5.25 9.5C5.25 9.8 5.45 10 5.75 10ZM8 10C8.29 10 8.5 9.8 8.5 9.5C8.5 9.19 8.29 9 8 9C7.7 9 7.5 9.19 7.5 9.5C7.5 9.8 7.7 10 8 10ZM10.25 10C10.54 10 10.75 9.8 10.75 9.5C10.75 9.19 10.54 9 10.25 9C9.95 9 9.75 9.19 9.75 9.5C9.75 9.8 9.95 10 10.25 10ZM12.5 10C12.79 10 13 9.8 13 9.5C13 9.19 12.79 9 12.5 9C12.2 9 12 9.19 12 9.5C12 9.8 12.2 10 12.5 10ZM3.5 11C3.2 11 3 11.2 3 11.5C3 11.8 3.2 12 3.5 12C3.79 12 4 11.8 4 11.5C4 11.2 3.79 11 3.5 11ZM5.75 11C5.45 11 5.25 11.2 5.25 11.5C5.25 11.8 5.45 12 5.75 12C6.04 12 6.25 11.8 6.25 11.5C6.25 11.2 6.04 11 5.75 11ZM8 11C7.7 11 7.5 11.2 7.5 11.5C7.5 11.8 7.7 12 8 12C8.29 12 8.5 11.8 8.5 11.5C8.5 11.2 8.29 11 8 11ZM10.25 11C9.95 11 9.75 11.2 9.75 11.5C9.75 11.8 9.95 12 10.25 12C10.54 12 10.75 11.8 10.75 11.5C10.75 11.2 10.54 11 10.25 11ZM12.5 11C12.2 11 12 11.2 12 11.5C12 11.8 12.2 12 12.5 12C12.79 12 13 11.8 13 11.5C13 11.2 12.79 11 12.5 11Z" fill="#000000" fill-opacity="1.000000" fill-rule="evenodd"/>
</svg>
